<svg width="1425" height="380" viewBox="0 0 1425 380" fill="none" xmlns="http://www.w3.org/2000/svg">
<g clip-path="url(#clip0_314_52)">
<g clip-path="url(#clip1_314_52)">
<g clip-path="url(#clip2_314_52)">
<path d="M993.749 281.849C1149.28 281.849 1350 326.94 1350 326.94C1350 326.94 1550.72 372.031 1706.25 372.031C1857.81 372.031 2052.12 329.281 2062.09 327.042V229.531H637.906V326.838C647.881 324.599 842.19 281.849 993.749 281.849Z" fill="black"/>
<path d="M637.5 326.431C637.5 326.431 838.221 281.137 993.75 281.137C1149.28 281.137 1350 326.431 1350 326.431C1350 326.431 1550.72 371.726 1706.25 371.726C1861.78 371.726 2062.5 326.431 2062.5 326.431" fill="black"/>
<path d="M637.5 326.432C637.5 326.432 838.221 303.733 993.75 303.733C1149.28 303.733 1350 326.432 1350 326.432C1350 326.432 1550.72 349.13 1706.25 349.13C1861.78 349.13 2062.5 326.432 2062.5 326.432" fill="black"/>
<path d="M637.5 326.431C637.5 326.431 838.221 235.74 993.75 235.74C1149.28 235.74 1350 326.431 1350 326.431C1350 326.431 1550.72 417.122 1706.25 417.122C1861.78 417.122 2062.5 326.431 2062.5 326.431" fill="black"/>
<path d="M637.5 326.431C637.5 326.431 838.221 258.438 993.75 258.438C1149.28 258.438 1350 326.431 1350 326.431C1350 326.431 1550.72 394.424 1706.25 394.424C1861.78 394.424 2062.5 326.431 2062.5 326.431" fill="black"/>
</g>
</g>
</g>
<defs>
<clipPath id="clip0_314_52">
<rect width="1425" height="379.19" fill="white" transform="translate(0 0.34375)"/>
</clipPath>
<clipPath id="clip1_314_52">
<rect width="1425" height="379.19" fill="white" transform="translate(0 0.34375)"/>
</clipPath>
<clipPath id="clip2_314_52">
<rect width="1425" height="1425" fill="white" transform="translate(637.5 229.531)"/>
</clipPath>
</defs>
</svg>
