<svg width="1425" height="382" viewBox="0 0 1425 382" fill="none" xmlns="http://www.w3.org/2000/svg">
<g clip-path="url(#clip0_314_90)">
<g clip-path="url(#clip1_314_90)">
<g clip-path="url(#clip2_314_90)">
<path d="M993.749 52.6772C1149.28 52.6772 1350 97.7683 1350 97.7683C1350 97.7683 1550.72 142.859 1706.25 142.859C1857.81 142.859 2052.12 100.109 2062.09 97.8701V0.359375H637.906V97.6665C647.881 95.4272 842.19 52.6772 993.749 52.6772Z" fill="black"/>
<path d="M637.5 97.2595C637.5 97.2595 838.221 51.9648 993.75 51.9648C1149.28 51.9648 1350 97.2595 1350 97.2595C1350 97.2595 1550.72 142.554 1706.25 142.554C1861.78 142.554 2062.5 97.2595 2062.5 97.2595" fill="black"/>
<path d="M637.5 97.2597C637.5 97.2597 838.221 74.5615 993.75 74.5615C1149.28 74.5615 1350 97.2597 1350 97.2597C1350 97.2597 1550.72 119.958 1706.25 119.958C1861.78 119.958 2062.5 97.2597 2062.5 97.2597" fill="black"/>
<path d="M637.5 97.2594C637.5 97.2594 838.221 6.56836 993.75 6.56836C1149.28 6.56836 1350 97.2594 1350 97.2594C1350 97.2594 1550.72 187.951 1706.25 187.951C1861.78 187.951 2062.5 97.2594 2062.5 97.2594" fill="black"/>
<path d="M637.5 97.2595C637.5 97.2595 838.221 29.2666 993.75 29.2666C1149.28 29.2666 1350 97.2595 1350 97.2595C1350 97.2595 1550.72 165.252 1706.25 165.252C1861.78 165.252 2062.5 97.2595 2062.5 97.2595" fill="black"/>
</g>
</g>
</g>
<defs>
<clipPath id="clip0_314_90">
<rect width="1425" height="380.8" fill="white" transform="translate(0 0.359375)"/>
</clipPath>
<clipPath id="clip1_314_90">
<rect width="1425" height="380.8" fill="white" transform="translate(0 0.359375)"/>
</clipPath>
<clipPath id="clip2_314_90">
<rect width="1425" height="1425" fill="white" transform="translate(637.5 0.359375)"/>
</clipPath>
</defs>
</svg>
