<svg width="191" height="82" viewBox="0 0 191 82" fill="none" xmlns="http://www.w3.org/2000/svg">
<g clip-path="url(#clip0_314_24)">
<path d="M128.064 35.5927C126.814 34.9328 125.423 34.5879 124.011 34.5879C122.599 34.5879 121.208 34.9328 119.959 35.5927C118.789 36.2531 117.822 37.2225 117.163 38.3955C116.467 39.6304 116.114 41.0296 116.14 42.4476C116.112 43.8746 116.465 45.2833 117.163 46.5276C117.821 47.7014 118.788 48.6711 119.959 49.3304C121.208 49.9904 122.599 50.3353 124.011 50.3353C125.423 50.3353 126.814 49.9904 128.064 49.3304C129.233 48.6689 130.2 47.6998 130.86 46.5276C131.531 45.2758 131.882 43.8768 131.882 42.4556C131.882 41.0344 131.531 39.6353 130.86 38.3835C130.198 37.2158 129.231 36.251 128.064 35.5927Z" fill="#909090"/>
<path d="M148.86 35.544C147.68 34.88 146.35 34.5313 144.997 34.5312C143.644 34.5313 142.314 34.88 141.134 35.544C140.011 36.2171 139.093 37.1866 138.482 38.3468C137.85 39.6179 137.521 41.0187 137.521 42.4388C137.521 43.859 137.85 45.2598 138.482 46.5309C139.092 47.6923 140.01 48.6622 141.134 49.3337C142.315 50.0006 143.648 50.351 145.003 50.351C146.358 50.351 147.691 50.0006 148.872 49.3337C149.994 48.6588 150.911 47.6897 151.524 46.5309C152.16 45.2609 152.491 43.8597 152.491 42.4388C152.491 41.018 152.16 39.6167 151.524 38.3468C150.907 37.1864 149.986 36.2172 148.86 35.544Z" fill="#909090"/>
<path d="M45.0153 39.2565C44.4691 38.9569 43.8565 38.7998 43.2338 38.7998C42.6112 38.7998 41.9985 38.9569 41.4523 39.2565C40.9117 39.56 40.4642 40.0058 40.1581 40.5458C39.8277 41.1269 39.6607 41.787 39.6748 42.4557C39.6596 43.1207 39.8268 43.7772 40.1581 44.3536C40.4676 44.8889 40.9145 45.3313 41.4523 45.6349C42.2689 46.1003 43.2349 46.2268 44.1434 45.9874C45.052 45.7479 45.8309 45.1615 46.3135 44.3536C46.6429 43.7764 46.81 43.1205 46.7969 42.4557C46.809 41.7872 46.6421 41.1277 46.3135 40.5458C46.0049 40.0064 45.5563 39.5609 45.0153 39.2565Z" fill="#909090"/>
<path d="M171.001 35.5927C169.752 34.9328 168.361 34.5879 166.949 34.5879C165.536 34.5879 164.146 34.9328 162.896 35.5927C161.726 36.2531 160.759 37.2225 160.1 38.3955C159.404 39.6304 159.051 41.0296 159.078 42.4476C159.057 43.869 159.414 45.2703 160.112 46.5076C160.77 47.6814 161.737 48.6511 162.908 49.3104C164.158 49.9704 165.548 50.3153 166.961 50.3153C168.373 50.3153 169.764 49.9704 171.013 49.3104C172.182 48.6489 173.149 47.6798 173.809 46.5076C174.48 45.2558 174.832 43.8568 174.832 42.4356C174.832 41.0144 174.48 39.6153 173.809 38.3635C173.141 37.2016 172.171 36.2437 171.001 35.5927Z" fill="#909090"/>
<path d="M67.7562 5.75075C46.8493 10.6516 30.4162 15.9009 19.048 21.3463L24.5803 29.5385L30.4521 20.8418H40.4902L28.7465 37.9669V52.157H20.4141V37.9669L11.7302 25.3063C-17.549 43.5084 9.82488 63.3682 115.689 79.184C241.111 97.9227 196.968 -24.5435 67.7562 5.75075ZM75.6412 43.5484C75.6412 46.789 74.7598 49.1367 72.9969 50.5915C71.234 52.0462 68.378 52.7736 64.4288 52.7736C60.4743 52.7736 57.617 52.0462 55.8568 50.5915C54.867 49.7463 54.1393 48.6348 53.7597 47.3883C53.6758 47.5364 53.5879 47.6806 53.492 47.8247C52.4265 49.3968 50.9622 50.6559 49.25 51.4723C47.3634 52.3403 45.3121 52.7897 43.2363 52.7897C41.1606 52.7897 39.1093 52.3403 37.2227 51.4723C35.509 50.6582 34.0441 49.3987 32.9806 47.8247C31.9584 46.2235 31.4151 44.3623 31.4151 42.4614C31.4151 40.5604 31.9584 38.6992 32.9806 37.098C34.0455 35.5263 35.5101 34.2684 37.2227 33.4544C39.1086 32.5841 41.1602 32.1334 43.2363 32.1334C45.3125 32.1334 47.3641 32.5841 49.25 33.4544C50.8154 34.2055 52.1762 35.3251 53.2164 36.7176V32.7256H61.0935V41.5745C61.0935 43.3562 61.3451 44.6095 61.8444 45.3222C62.3437 46.0349 63.2105 46.3953 64.4488 46.3953C65.6871 46.3953 66.5299 46.0389 67.0212 45.3222C67.5125 44.6055 67.7602 43.3562 67.7602 41.5745V32.7256H75.6412V43.5484ZM90.868 40.145C90.3646 39.7736 89.8049 39.4856 89.2103 39.2922C88.6472 39.0895 88.0549 38.98 87.4567 38.9679C86.7875 38.969 86.1309 39.1501 85.5554 39.4924C84.9729 39.8251 84.4763 40.2899 84.1054 40.8497C83.747 41.3818 83.5563 42.0095 83.5582 42.6515V52.157H75.6771V32.7256H83.5582V35.4604C84.3189 34.4501 85.284 33.6123 86.3902 33.0019C87.4125 32.4352 88.5614 32.1376 89.7296 32.1371C90.5345 32.1534 91.3326 32.2883 92.0983 32.5375C92.8377 32.747 93.5361 33.0815 94.1634 33.5264L90.868 40.145ZM113.956 52.157H97.9781V20.8418H100.854V49.6225H113.944L113.956 52.157ZM155.099 52.6896C155.161 54.5839 154.722 56.461 153.828 58.131C152.994 59.5942 151.727 60.7612 150.201 61.4703C148.437 62.2635 146.518 62.6494 144.585 62.5994C142.135 62.5994 140.065 62.119 138.374 61.158C136.696 60.21 135.375 58.7356 134.615 56.9618L136.948 55.8807C137.557 57.2424 138.594 58.3672 139.9 59.0839C141.331 59.8952 142.953 60.3098 144.597 60.2851C145.971 60.309 147.332 60.0072 148.568 59.4043C149.713 58.8347 150.673 57.9483 151.332 56.8497C152.034 55.6351 152.385 54.2488 152.346 52.8457V48.0649C151.572 49.4989 150.421 50.6937 149.019 51.5204C147.594 52.3615 145.967 52.7949 144.314 52.7736C142.591 52.7974 140.896 52.3369 139.42 51.4443C137.957 50.5575 136.76 49.292 135.953 47.7807C135.221 46.422 134.797 44.9181 134.711 43.3763C134.617 44.9455 134.15 46.4694 133.349 47.8207C132.416 49.362 131.084 50.6211 129.494 51.4643C127.801 52.3251 125.929 52.7736 124.03 52.7736C122.131 52.7736 120.259 52.3251 118.565 51.4643C116.977 50.6198 115.645 49.361 114.711 47.8207C113.781 46.1816 113.293 44.3286 113.293 42.4433C113.293 40.558 113.781 38.7051 114.711 37.066C115.645 35.5279 116.977 34.2717 118.565 33.4304C120.258 32.5671 122.131 32.1171 124.03 32.1171C125.929 32.1171 127.801 32.5671 129.494 33.4304C131.083 34.2705 132.416 35.527 133.349 37.066C134.16 38.4128 134.634 39.9362 134.731 41.5064C134.823 39.9798 135.242 38.491 135.961 37.1421C136.77 35.6318 137.963 34.3635 139.42 33.4664C140.914 32.5683 142.628 32.1077 144.369 32.1371C146.012 32.1073 147.632 32.5223 149.059 33.3383C150.452 34.1456 151.591 35.329 152.346 36.7537V32.7256H155.111L155.099 52.6896ZM176.269 47.8127C175.336 49.354 174.004 50.6131 172.414 51.4563C170.721 52.3171 168.849 52.7656 166.95 52.7656C165.051 52.7656 163.179 52.3171 161.486 51.4563C159.897 50.6118 158.565 49.353 157.631 47.8127C156.702 46.1736 156.213 44.3206 156.213 42.4353C156.213 40.55 156.702 38.697 157.631 37.058C158.565 35.5199 159.897 34.2637 161.486 33.4223C163.178 32.5591 165.051 32.1091 166.95 32.1091C168.849 32.1091 170.722 32.5591 172.414 33.4223C174.004 34.2625 175.336 35.519 176.269 37.058C177.201 38.6962 177.691 40.5495 177.691 42.4353C177.691 44.3212 177.201 46.1745 176.269 47.8127Z" fill="#909090"/>
<path d="M18.7079 20.8418H8.66992L11.7297 25.3062C14.0961 23.8553 16.5389 22.5334 19.0475 21.3463L18.7079 20.8418Z" fill="#909090"/>
<path d="M53.4919 37.0815C53.4041 36.9534 53.3082 36.8293 53.2163 36.7012V43.548C53.1963 44.8433 53.3796 46.1336 53.7596 47.3718C54.6513 45.7939 55.0976 44.0024 55.0504 42.1894C55.0033 40.3765 54.4645 38.6107 53.4919 37.0815Z" fill="#909090"/>
<path d="M134.712 41.5068C134.688 41.8151 134.676 42.1275 134.676 42.4478C134.676 42.7681 134.676 43.0764 134.712 43.3847C134.736 43.0764 134.752 42.7681 134.752 42.4478C134.752 42.1275 134.736 41.8151 134.712 41.5068Z" fill="#909090"/>
</g>
<defs>
<clipPath id="clip0_314_24">
<rect width="189.54" height="80.24" fill="white" transform="translate(0.734375 0.90625)"/>
</clipPath>
</defs>
</svg>
