<svg width="95" height="41" viewBox="0 0 95 41" fill="none" xmlns="http://www.w3.org/2000/svg">
<g clip-path="url(#clip0_314_186)">
<path d="M63.7261 17.4794C63.1033 17.1504 62.4099 16.9785 61.7059 16.9785C61.0019 16.9785 60.3085 17.1504 59.6857 17.4794C59.1023 17.8086 58.6202 18.2919 58.2918 18.8766C57.9448 19.4922 57.7688 20.1897 57.782 20.8966C57.7681 21.608 57.9441 22.3102 58.2918 22.9305C58.6197 23.5157 59.102 23.9991 59.6857 24.3277C60.3085 24.6567 61.0019 24.8287 61.7059 24.8287C62.4099 24.8287 63.1033 24.6567 63.7261 24.3277C64.309 23.998 64.791 23.5149 65.12 22.9305C65.4547 22.3065 65.6298 21.6091 65.6298 20.9006C65.6298 20.1921 65.4547 19.4947 65.12 18.8707C64.7902 18.2885 64.3083 17.8076 63.7261 17.4794Z" fill="#909090"/>
<path d="M74.0917 17.455C73.5037 17.124 72.8406 16.9502 72.1661 16.9502C71.4917 16.9502 70.8286 17.124 70.2405 17.455C69.6805 17.7906 69.2231 18.2739 68.9183 18.8522C68.6034 19.4859 68.4395 20.1842 68.4395 20.8922C68.4395 21.6001 68.6034 22.2984 68.9183 22.9321C69.2222 23.511 69.6798 23.9945 70.2405 24.3293C70.8292 24.6617 71.4935 24.8364 72.1691 24.8364C72.8448 24.8364 73.5091 24.6617 74.0977 24.3293C74.6571 23.9928 75.1143 23.5098 75.42 22.9321C75.7368 22.299 75.9019 21.6005 75.9019 20.8922C75.9019 20.1839 75.7368 19.4853 75.42 18.8522C75.1126 18.2738 74.6533 17.7906 74.0917 17.455Z" fill="#909090"/>
<path d="M22.325 19.3058C22.0527 19.1564 21.7473 19.0781 21.4368 19.0781C21.1264 19.0781 20.821 19.1564 20.5487 19.3058C20.2792 19.4571 20.0561 19.6793 19.9035 19.9485C19.7388 20.2382 19.6556 20.5672 19.6626 20.9006C19.655 21.2321 19.7384 21.5594 19.9035 21.8467C20.0578 22.1136 20.2806 22.3341 20.5487 22.4854C20.9558 22.7175 21.4374 22.7805 21.8903 22.6612C22.3432 22.5418 22.7316 22.2495 22.9721 21.8467C23.1364 21.559 23.2196 21.232 23.2131 20.9006C23.2191 20.5674 23.1359 20.2386 22.9721 19.9485C22.8183 19.6796 22.5946 19.4575 22.325 19.3058Z" fill="#909090"/>
<path d="M85.1303 17.4794C84.5075 17.1504 83.8141 16.9785 83.1101 16.9785C82.4061 16.9785 81.7127 17.1504 81.0899 17.4794C80.5066 17.8086 80.0244 18.2919 79.696 18.8766C79.3491 19.4922 79.173 20.1897 79.1862 20.8966C79.1759 21.6052 79.3539 22.3038 79.702 22.9206C80.0299 23.5057 80.5122 23.9891 81.0959 24.3178C81.7187 24.6468 82.4121 24.8187 83.1161 24.8187C83.8201 24.8187 84.5135 24.6468 85.1363 24.3178C85.7192 23.988 86.2012 23.5049 86.5302 22.9206C86.8649 22.2965 87.04 21.5991 87.04 20.8906C87.04 20.1821 86.8649 19.4847 86.5302 18.8607C86.1973 18.2814 85.7134 17.804 85.1303 17.4794Z" fill="#909090"/>
<path d="M33.6609 2.603C23.2384 5.04611 15.0461 7.66288 9.37879 10.3774L12.1368 14.4613L15.064 10.126H20.0682L14.2137 18.6629V25.7367H10.0598V18.6629L5.7307 12.3515C-8.86566 21.4254 4.78085 31.3256 57.5567 39.2098C120.082 48.5511 98.076 -12.4988 33.6609 2.603ZM37.5918 21.4453C37.5918 23.0607 37.1524 24.2311 36.2735 24.9563C35.3947 25.6815 33.9709 26.0441 32.0021 26.0441C30.0307 26.0441 28.6063 25.6815 27.7288 24.9563C27.2354 24.535 26.8726 23.9809 26.6833 23.3595C26.6415 23.4333 26.5977 23.5052 26.5499 23.577C26.0187 24.3608 25.2887 24.9884 24.4351 25.3954C23.4947 25.8281 22.472 26.0521 21.4372 26.0521C20.4024 26.0521 19.3798 25.8281 18.4393 25.3954C17.5849 24.9896 16.8547 24.3617 16.3245 23.577C15.8149 22.7789 15.5441 21.851 15.5441 20.9034C15.5441 19.9557 15.8149 19.0279 16.3245 18.2297C16.8554 17.4462 17.5855 16.8192 18.4393 16.4134C19.3794 15.9795 20.4022 15.7549 21.4372 15.7549C22.4722 15.7549 23.495 15.9795 24.4351 16.4134C25.2155 16.7878 25.894 17.3459 26.4125 18.0401V16.0501H30.3394V20.4613C30.3394 21.3495 30.4648 21.9743 30.7138 22.3295C30.9627 22.6848 31.3948 22.8645 32.0121 22.8645C32.6294 22.8645 33.0496 22.6868 33.2945 22.3295C33.5394 21.9723 33.6629 21.3495 33.6629 20.4613V16.0501H37.5918V21.4453ZM45.1827 19.7487C44.9317 19.5635 44.6527 19.42 44.3563 19.3236C44.0755 19.2225 43.7803 19.1679 43.4821 19.1619C43.1485 19.1624 42.8211 19.2527 42.5342 19.4234C42.2438 19.5892 41.9963 19.8209 41.8114 20.1C41.6327 20.3652 41.5376 20.6782 41.5386 20.9982V25.7367H37.6097V16.0501H41.5386V17.4134C41.9178 16.9097 42.3989 16.4921 42.9504 16.1878C43.46 15.9053 44.0328 15.757 44.6152 15.7567C45.0164 15.7648 45.4143 15.8321 45.796 15.9563C46.1646 16.0608 46.5128 16.2275 46.8255 16.4493L45.1827 19.7487ZM56.6925 25.7367H48.7272V10.126H50.161V24.4733H56.6865L56.6925 25.7367ZM77.2031 26.0022C77.234 26.9465 77.0156 27.8823 76.5698 28.7148C76.154 29.4442 75.5221 30.026 74.7617 30.3794C73.8823 30.7748 72.9255 30.9672 71.9619 30.9423C70.7406 30.9423 69.7084 30.7028 68.8654 30.2238C68.029 29.7512 67.3706 29.0162 66.9916 28.1319L68.1545 27.593C68.4583 28.2718 68.9751 28.8325 69.6261 29.1898C70.3398 29.5943 71.1481 29.8009 71.9679 29.7886C72.653 29.8005 73.3312 29.6501 73.9473 29.3495C74.5184 29.0656 74.9966 28.6237 75.3252 28.0761C75.6752 27.4706 75.8503 26.7795 75.831 26.08V23.6968C75.4449 24.4116 74.8713 25.0072 74.1723 25.4194C73.462 25.8386 72.6507 26.0547 71.8265 26.0441C70.9676 26.056 70.1225 25.8264 69.3871 25.3814C68.6577 24.9394 68.0607 24.3085 67.6587 23.5551C67.2936 22.8778 67.0822 22.1281 67.0394 21.3595C66.9927 22.1417 66.7598 22.9014 66.3603 23.5751C65.8953 24.3434 65.2312 24.9711 64.4387 25.3914C63.5944 25.8205 62.6612 26.0441 61.7146 26.0441C60.768 26.0441 59.8347 25.8205 58.9905 25.3914C58.1985 24.9704 57.5345 24.3429 57.0688 23.5751C56.6056 22.758 56.362 21.8342 56.362 20.8944C56.362 19.9546 56.6056 19.0309 57.0688 18.2138C57.5346 17.447 58.1986 16.8208 58.9905 16.4014C59.8344 15.9711 60.7678 15.7468 61.7146 15.7468C62.6614 15.7468 63.5948 15.9711 64.4387 16.4014C65.231 16.8202 65.8951 17.4466 66.3603 18.2138C66.7647 18.8852 67.001 19.6446 67.0493 20.4273C67.0951 19.6663 67.3043 18.9242 67.6627 18.2517C68.0658 17.4988 68.6608 16.8666 69.3871 16.4194C70.1316 15.9716 70.9863 15.7421 71.8544 15.7567C72.6732 15.7419 73.4808 15.9487 74.1922 16.3555C74.8868 16.758 75.4546 17.3479 75.831 18.0581V16.0501H77.209L77.2031 26.0022ZM87.757 23.5711C87.292 24.3394 86.6279 24.9671 85.8354 25.3874C84.9911 25.8165 84.0579 26.0401 83.1113 26.0401C82.1647 26.0401 81.2314 25.8165 80.3872 25.3874C79.5952 24.9664 78.9313 24.3389 78.4656 23.5711C78.0023 22.754 77.7587 21.8303 77.7587 20.8904C77.7587 19.9506 78.0023 19.0269 78.4656 18.2098C78.9313 17.443 79.5953 16.8168 80.3872 16.3974C81.2311 15.9671 82.1645 15.7428 83.1113 15.7428C84.0581 15.7428 84.9915 15.9671 85.8354 16.3974C86.6277 16.8162 87.2918 17.4426 87.757 18.2098C88.2217 19.0264 88.466 19.9503 88.466 20.8904C88.466 21.8305 88.2217 22.7544 87.757 23.5711Z" fill="#909090"/>
<path d="M9.20926 10.126H4.20508L5.73043 12.3515C6.91016 11.6282 8.12796 10.9693 9.37852 10.3775L9.20926 10.126Z" fill="#909090"/>
<path d="M26.5503 18.2218C26.5064 18.158 26.4587 18.0961 26.4129 18.0322V21.4454C26.4028 22.0911 26.4942 22.7344 26.6837 23.3516C27.1282 22.565 27.3507 21.6719 27.3272 20.7682C27.3037 19.8644 27.0351 18.9842 26.5503 18.2218Z" fill="#909090"/>
<path d="M67.0394 20.4277C67.0275 20.5814 67.0215 20.7371 67.0215 20.8968C67.0215 21.0565 67.0215 21.2102 67.0394 21.3639C67.0514 21.2102 67.0594 21.0565 67.0594 20.8968C67.0594 20.7371 67.0514 20.5814 67.0394 20.4277Z" fill="#909090"/>
</g>
<defs>
<clipPath id="clip0_314_186">
<rect width="94.49" height="40" fill="white" transform="translate(0.248047 0.1875)"/>
</clipPath>
</defs>
</svg>
